<svg xmlns="http://www.w3.org/2000/svg" width="321.19" height="293.16">
  <path d="M0 293.16V0h314.15c14.13 97.77 8.59 190.53-31.4 293.16H0" style="fill:#38a09c;fill-opacity:1;fill-rule:nonzero;stroke:none;stroke-width:.13333333"/>
  <path d="M127.46 110.79l-1.32 1.13c2.92 1.05 6.1-.97 6.73-2.7l.15-1.87c-2.32.52-4.61 1.67-5.56 3.44M143.32 119.9l-2.3-.14a5.3 5.3 0 0 0 2.8 4.99l1.72.38c2.36-2.02-.79-4.08-2.22-5.23M120.16 72.17l-1.72 1.22c3.5 1.26 6.37-.6 7.63-3.13l.57-2.3c-2.78.63-4.93.61-6.48 4.21M120.33 83.73l-.51-1.88c-2.79.63-4.85 1.65-5.98 3.77v1.5c3.5 1.25 5.36-1.9 6.5-3.39M111.68 100.79l1.16.7c3.83 1.24 4.09-1.86 5.03-3.1l1.48-1.3c-3.56-.69-6.72 1.93-7.67 3.7M134.3 46.4l-1.37.66c.38 2.45 5.92 5.17 7.31 3.22l.2-2.32a8.35 8.35 0 0 0-6.13-1.56M153.57 40.15l-2.13-.65c-1.15 1.63-1.75 2.87-.55 5.67L152 47.4c2.53-2.47 5.02-4.79 1.57-7.24M222.06 94.09c-2.4-3.21-6.96-7.6-3.18-11.86 1.98-1.5 2.56-2.65 2.8-4.74.8-7.23.43-10.37-.59-14.34.17-.35.92.1 1.2-1.2.75-3.49-1.2-4.16-1.2-4.16 1.48-1.29 1.34-6.14-1.01-6.1 1.29-2.12.18-5.53-2.13-4.8 0 0 1.17-.6 1.01-2.15-.3-3.08-4.7-.06-3.57-2.1.6-1.07-1.87-4.7-3.14-1.89-.74-.5.53-2.26-.82-2.8-.78.03-1.61.66-2.63 1.22-.28-1.18.93-1.79-.56-3.43-2.02-1.4-2.16.67-3.55 1.44-2.58-.58 3.52-2.1-1.95-4.42-1.4 3.35-1.3.87-1.91.41-.37-.27-1.21.6-2.76 2.18.8-2.22 2.66-4.94-.04-4.16-3.08 1.39-1.28-.42-1.31-.65 2.67-1.2-2.46-4.06-2.25-1.03-.07 2.05-4.5 3.8-3.25 1.32.83-3.12 4.66 1.66 1.36-3.9-2.06 2.32-3.73 3.86-4.07 4.71-1.6 6.39-.72.57-2.38.48 2.22-1.48 5.06-4.11 4.23-5.82-2.4-.19-7.92 3.74-4.43 4.06-.26 1.25-2.3 2.73-3.47.55 1.95-.5 5.29-7.01 1.13-5.07-.4.39-.4 1.54-1.14 2.64-.98-.89-.2-2.26-.54-2.83-3.3-3.05-2.15 4.9-2.03 6.65-4.33-2.68-.26-1.94-1.39-6.37-3.58.64-4.55 2.17-3.95 6.19-.5.97-1.39 3.18-1.99.46 1.94-2.54 1.76-6.2-1.63-6.3 5.47 49.99 5.06 100.5-2.73 150.05l-.43 2.65c3.93-.05 9.63-1.22 13.74-1.43 11.85.4 11.61 1.94 31.22 1.68 4.52-.44 5.78-1.18 7.24-1.11-1.43-6.07-11.33-2.63-16.36-4.38-8.52-.81-9.99-5.93-12.69-9.72-1.22-2.1-3-4.76-2.96-8.27-.66-4.55.22-6.96.13-11.41.39-3.3 4.13-2.63 6.45-2.35 7.38.73 19.77-.46 23.04-1.44 4.66-1.41 4.77-4.3 1.62-8.61a6.17 6.17 0 0 1 .4-5.35c1.28-1.44 2.94-2.4 1.7-4.2 0 0-10.7-2.24-3.34-3.48 7.56-1.27 5.04-4.35 5.04-4.35s-1.24-3.1-2.4-5.43c-.85-1.7 6.28-2.24 7.06-4.96 1.7-2.32-3.7-7.49-5.59-10.08zm-15.93-2.8c-4.62 1.05-11.58-2.11-10.67-2.72 2.35-1.59 7.71-4.36 12.89-2.51.88.31 1.24 1.18 1.33 2.3.24 2.64-1.89 2.7-3.55 2.93" style="fill:#33439f;fill-opacity:1;fill-rule:nonzero;stroke:none;stroke-width:.13333333"/>
  <path d="M167.76 178.98c-6.04 37.16-16.3 74.96-31.58 114.18H0V0h167.59c1.39 9.65 2.32 16.72 3.31 26.3 0 0-2.87.88-2.6 3.23.3 2.58 1.43 3.19 1.43 3.19l-1.24.6s-1.38-2.01-1.39-1.94c0-1.98.83-4.94-3.7-3.84-1.56 3.47 2.5 4.2 1.44 6.56-4.8.28-1.43-3.6-5.25-1.43.25-1.11-.56-4.08-1.76-3.88-.52 1.68-1.8 4.48.1 6.18-.6.4-2.38.13-2.8-.48-.56-.84 1.28-2.28-.2-4.87-4.43 1.91-.32 6.2-3.98 7.8-4.02-.5 2.32-3.92-.88-6.87-3.6.83-5 4.58-3.52 6.8-.09 1.97-1.62 2.95-1.87 4.66-1.81-.29-2.58-.95-2.78-1.63-.23-1.24 3.28-1.9.92-4.66-3.83.6-1.3 6.79-4.34 3.46-.32-1.43-1.3-2.72-2.05-2.87-1.46 1.04-2.14 2.68-1.2 4.12l1.54 2.03c-.2-.05.66 1.12.46 1.06-2.54-2.03-5.93-3.43-8.08-1.15.28 2.12 2.12 2.26 5.03 2.9-3.67.35-4.36 1.65-5.56 2.37-.43-2.43-3.27-2.8-5.94-3.2-1.47.38-2.45-.67-3.14-.14 1.12 2.75 3.8 4.85 7.07 5.5 1.46-.17 1.66-.13 2.68-.69 1.97.92 1.73 1.22 2.25 2.6-2.86 1.28-5.16-.38-8.02.36 0 .1-.75.1-.79-.1.05-.04-.34-.68-.29-.72-1.23-2.37-4.56-1.45-6.31-.94-.26 1.9 1.66 3.42 3.23 4.07 2.12.76 2.82.14 2.82.13l.87-.78c.93 3.37 2.13 3.54 3.94 4.91-1.98.73-2.7 1.32-5.2 1.12-2.8-4.32-11.2-6.21-10.88-4.18 1.2 4.48 7.4 5.55 7.4 5.55s-3.24 1.2-2.7 2.25c.56 1.05 4.81 1.7 4.21 3.34-4.43-1.97-5.3-1.16-2.28 2.71-3.72.19-2.89-3.83-5.25-4.76-1.7 1.25-.69 3.88-.69 3.88-.85-.67-3.1-4.43-4.94-3.97-.6.46-.6 2.5.88 3.84-1.8.39-4.68.14-5.13 2.07 2.92 2.23 6 2.22 10.58 1.65 0 0 .84-.02 1.7-.3.88-.3 2.18.92 2.18.92-2.26.5-1.3 1.24-5.73 2.12-2.9 1.4-5.19 3.2-5.19 6.1 1.8.9 4 1.75 5.19.03 1.94-2.8 1.42-.55 2.77-.68l1.5.48c-1.22 2.98-8.02 2.95-6.67 5.1a31.18 31.18 0 0 0 3.37 4.26s-4.79-2.42-6.14-.7c-1.27 1.61 1.57 4.2 6.59 5.34-1.72 1.04-7.75-.02-4.1 3.76-4.34 1.84-2.92 3.13.59 2.2l1.66.19c-1.03.72-4.14 2.15-3.88 3.26.18 1.48 3.7-.37 4.25.74.24 1.6-1.7 2.3-1.87 2.75 2.5 1.57 3.95-2.23 6.18 0-.85 1.64-4.46 1.31-3.69 3.74 1.38 1.04 3.6.58 4.98 1.57 0 0-1.82 3.52-.88 3.98 1.99.97 3.84-2.16 4.53-2.35-.5 4.06 2.92 2.7 1.9 5.44-.05 1.48-.15 3.51 1.38 4.3 3.14-.97 3.44-3.45 3.37-7.16-.02-1.3 3.62.85 3.62.85 2.21 1.78-3.76 3.14-1.98 6.93 5.06.7 5.06-3.6 9.18-4.4 1.8 1.25-.77 3.28-1.37 4.72-2.57 1.44-5.7-.3-8.16 4.7 3.51 1.42 5.19.25 6.38-.38 1.12-.8.98-1.2 1.84-1.52.09 1.38-.25 3.86 1.07 4.43 1.15-.09 1.24-.5 2.21-1.15 1.02 1.06-1.61 3.65-.04 4.76 1.47-.28 1.94-1.57 1.94-1.57.89 1.18 1.89 1.2 2.81.87.51-1.24.63-4.13-1-5.16.77-.92 2.67.82 3.5.18 1.54 1.9-1.94 5.54.64 7.06 2.5-.23 2.38-2.72 4.87-3.77-.43 2.56 2.52 4.41-1.26 6.31 0 2.5 4.63 1.76 2.4 5.36.86 1.44 2.02.82 3.05.55l2.21-2.5a16 16 0 0 0-.22 7.58c-.77 1.9 1.05 4.07-2.4 5.7-.94 4.71-.95 9.5-6.44 12.52-3.1 5.83-22.6 2.75-26.9 8.51 1.03 1.05 11.01.72 12.3.32 1.89-.92 3.35.72 5.33.66 4.37 0 9.61-1.44 13.22 0 5.09-.06 9.38.12 13.97.14l.01.05" style="fill:#33439f;fill-opacity:1;fill-rule:nonzero;stroke:none;stroke-width:.13333333"/>
  <path d="M189.3 219.03c0-9.26 4.39-15.4 13.47-15.4 8.89 0 13.28 5.65 13.28 15.4 0 9.07-4.29 16-13.28 16-8.57 0-13.47-6.83-13.47-16zm13.47 26.7c16.24 0 27.08-11.97 27.08-26.7 0-15.5-10.94-26.1-27.08-26.1-16.23 0-27.27 10.3-27.27 26.1 0 15.5 11.24 26.7 27.27 26.7M269.03 203.81c-3.06-.48-6.02-1.17-9.09-1.17-5.38 0-9.14 1.27-9.14 3.9 0 3.03 5.08 5.47 10.77 8.5 5.42 2.92 12.88 6.82 12.88 15.6 0 9.65-8.58 15.09-21.62 15.09-5.92 0-10-1.17-14.91-2.24v-10.7c3.78 1.17 9.91 3.22 15.42 3.22 3.66 0 7.31-1.66 7.31-4.98 0-3.02-4.36-4.87-10.67-8.39-5.72-2.83-12.98-8.68-12.98-16.1 0-8.76 8.79-13.61 20.6-13.61 3.87 0 7.65.38 11.43.84v10.04M41.33 244.04c.3-5.66.51-10.05.51-17.94V199c0-9.75-.61-17.16-2.04-24.38h17.9c0 4.98-.51 11.9-.51 19.7v25.34c0 7.12 1.12 17.75 2.04 24.38h-17.9M85.01 220.45c0-10 4.2-16.82 12.9-16.82 8.1 0 13.73 6.92 13.73 16.77 0 8.77-4.4 14.62-13.11 14.62-8.6 0-13.52-4.95-13.52-14.57zm2.05 44.86c-1.02-7.5-1.02-15.88-1.02-18.61v-5.84c3.68 2.14 7.58 4.87 15.87 4.87 14.02 0 23.53-10.7 23.53-25.43 0-16-9.82-27.37-24.14-27.37-9.94 0-14.03 4.76-17.3 8.36-.72-2.62-1.03-4.85-1.85-7.1l-12.99.98c1.64 8.56 3.07 16.53 3.07 25.28v20.41c0 7.2-1.54 20.75-2.05 25.42l16.88-.97M163.15 203.66c-3.06-.49-4.92-1.02-7.98-1.02-5.39 0-9.15 1.27-9.15 3.9 0 3.03 5.08 5.47 10.78 8.5 5.41 2.92 12.88 6.82 12.88 15.6 0 9.65-8.6 15.09-21.63 15.09-5.91 0-10-1.17-14.9-2.24v-10.7c3.77 1.17 9.9 3.22 15.41 3.22 3.66 0 7.32-1.66 7.32-4.98 0-3.02-4.37-4.87-10.68-8.39-5.72-2.83-12.98-8.68-12.98-16.1 0-8.76 8.8-13.61 20.6-13.61 3.87 0 8.53.55 12.31 1.01l-1.98 9.72" style="fill:#fff;fill-opacity:1;fill-rule:nonzero;stroke:none;stroke-width:.13333333"/>
</svg>
